<svg xmlns="http://www.w3.org/2000/svg" xmlns:xlink="http://www.w3.org/1999/xlink" width="512" zoomAndPan="magnify" viewBox="0 0 384 383.999986" height="512" preserveAspectRatio="xMidYMid meet" version="1.0"><defs><g/><clipPath id="da7b1f7691"><path d="M 64 0 L 320 0 C 355.347656 0 384 28.652344 384 64 L 384 320 C 384 355.347656 355.347656 384 320 384 L 64 384 C 28.652344 384 0 355.347656 0 320 L 0 64 C 0 28.652344 28.652344 0 64 0 Z M 64 0 " clip-rule="nonzero"/></clipPath><clipPath id="d00b309490"><path d="M 0 0 L 384 0 L 384 384 L 0 384 Z M 0 0 " clip-rule="nonzero"/></clipPath><clipPath id="2ef1aee305"><path d="M 64 0 L 320 0 C 355.347656 0 384 28.652344 384 64 L 384 320 C 384 355.347656 355.347656 384 320 384 L 64 384 C 28.652344 384 0 355.347656 0 320 L 0 64 C 0 28.652344 28.652344 0 64 0 Z M 64 0 " clip-rule="nonzero"/></clipPath><clipPath id="b782897f8f"><rect x="0" width="384" y="0" height="384"/></clipPath><clipPath id="a49902f8d1"><rect x="0" width="206" y="0" height="224"/></clipPath><clipPath id="edf27035d5"><path d="M 0.71875 0.398438 L 63 0.398438 L 63 223 L 0.71875 223 Z M 0.71875 0.398438 " clip-rule="nonzero"/></clipPath><clipPath id="af8aed05d5"><rect x="0" width="63" y="0" height="223"/></clipPath><clipPath id="5ede4847e3"><path d="M 294 31 L 365.039062 31 L 365.039062 249.761719 L 294 249.761719 Z M 294 31 " clip-rule="nonzero"/></clipPath><clipPath id="e5744eb7e2"><rect x="0" width="72" y="0" height="219"/></clipPath><clipPath id="6038008226"><rect x="0" width="366" y="0" height="250"/></clipPath></defs><g clip-path="url(#da7b1f7691)"><g><g clip-path="url(#b782897f8f)"><g clip-path="url(#d00b309490)"><g clip-path="url(#2ef1aee305)"><rect x="-84.48" width="552.96" fill="#b0cad6" height="552.959979" y="-84.479997" fill-opacity="1"/></g></g></g></g></g><g transform="matrix(1, 0, 0, 1, 12, 68)"><g clip-path="url(#6038008226)"><g transform="matrix(1, 0, 0, 1, 78, 8)"><g clip-path="url(#a49902f8d1)"><g fill="#1e3a5f" fill-opacity="1"><g transform="translate(2.474685, 173.796927)"><g><path d="M 38.796875 0 L 38.796875 -100.59375 L 4.890625 -100.59375 L 4.890625 -120.640625 L 97.171875 -120.640625 L 97.171875 -100.59375 L 62.9375 -100.59375 L 62.9375 0 Z M 38.796875 0 "/></g></g></g><g fill="#1e3a5f" fill-opacity="1"><g transform="translate(97.013344, 173.796927)"><g><path d="M 37.5 -49.71875 L 66.1875 -49.71875 L 62.609375 -62.9375 C 60.753906 -69.238281 58.984375 -75.757812 57.296875 -82.5 C 55.617188 -89.238281 53.851562 -95.867188 52 -102.390625 L 51.359375 -102.390625 C 49.835938 -95.753906 48.207031 -89.09375 46.46875 -82.40625 C 44.726562 -75.726562 42.929688 -69.238281 41.078125 -62.9375 Z M 79.890625 0 L 71.40625 -30.96875 L 32.28125 -30.96875 L 23.796875 0 L -0.65625 0 L 37.984375 -120.640625 L 66.359375 -120.640625 L 105.15625 0 Z M 79.890625 0 "/></g></g></g></g></g><g clip-path="url(#edf27035d5)"><g><g clip-path="url(#af8aed05d5)"><g fill="#1e3a5f" fill-opacity="1"><g transform="translate(0.722789, 173.23121)"><g><path d="M 43.203125 28.203125 C 35.265625 28.203125 29.421875 26.351562 25.671875 22.65625 C 21.921875 18.96875 20.046875 12.175781 20.046875 2.28125 C 20.046875 -2.175781 20.179688 -6.085938 20.453125 -9.453125 C 20.734375 -12.828125 21.007812 -16.171875 21.28125 -19.484375 C 21.550781 -22.796875 21.6875 -26.410156 21.6875 -30.328125 C 21.6875 -33.804688 20.570312 -36.984375 18.34375 -39.859375 C 16.113281 -42.742188 11.957031 -44.238281 5.875 -44.34375 L 5.875 -58.53125 C 11.957031 -58.632812 16.113281 -60.125 18.34375 -63 C 20.570312 -65.882812 21.6875 -69.015625 21.6875 -72.390625 C 21.6875 -76.410156 21.550781 -80.050781 21.28125 -83.3125 C 21.007812 -86.570312 20.734375 -89.910156 20.453125 -93.328125 C 20.179688 -96.753906 20.046875 -100.640625 20.046875 -104.984375 C 20.046875 -114.984375 21.921875 -121.804688 25.671875 -125.453125 C 29.421875 -129.097656 35.265625 -130.921875 43.203125 -130.921875 L 53.796875 -130.921875 L 53.796875 -118.203125 L 50.046875 -118.203125 C 45.804688 -118.203125 42.976562 -117.195312 41.5625 -115.1875 C 40.15625 -113.175781 39.453125 -109.453125 39.453125 -104.015625 C 39.453125 -98.898438 39.585938 -93.894531 39.859375 -89 C 40.128906 -84.113281 40.265625 -78.789062 40.265625 -73.03125 C 40.265625 -66.300781 39.203125 -61.359375 37.078125 -58.203125 C 34.960938 -55.046875 31.675781 -52.925781 27.21875 -51.84375 L 27.21875 -51.03125 C 31.675781 -49.945312 34.960938 -47.828125 37.078125 -44.671875 C 39.203125 -41.515625 40.265625 -36.566406 40.265625 -29.828125 C 40.265625 -24.066406 40.128906 -18.738281 39.859375 -13.84375 C 39.585938 -8.957031 39.453125 -3.960938 39.453125 1.140625 C 39.453125 6.460938 40.15625 10.128906 41.5625 12.140625 C 42.976562 14.148438 45.804688 15.15625 50.046875 15.15625 L 53.796875 15.15625 L 53.796875 28.203125 Z M 43.203125 28.203125 "/></g></g></g></g></g></g><g clip-path="url(#5ede4847e3)"><g transform="matrix(1, 0, 0, 1, 294, 31)"><g clip-path="url(#e5744eb7e2)"><g fill="#1e3a5f" fill-opacity="1"><g transform="translate(70.822681, 52.725957)"><g><path d="M -43.1875 -28.1875 C -35.257812 -28.1875 -29.421875 -26.335938 -25.671875 -22.640625 C -21.921875 -18.953125 -20.046875 -12.164062 -20.046875 -2.28125 C -20.046875 2.175781 -20.179688 6.085938 -20.453125 9.453125 C -20.722656 12.816406 -20.992188 16.15625 -21.265625 19.46875 C -21.535156 22.78125 -21.671875 26.394531 -21.671875 30.3125 C -21.671875 33.789062 -20.554688 36.96875 -18.328125 39.84375 C -16.109375 42.726562 -11.953125 44.222656 -5.859375 44.328125 L -5.859375 58.5 C -11.953125 58.613281 -16.109375 60.109375 -18.328125 62.984375 C -20.554688 65.867188 -21.671875 68.992188 -21.671875 72.359375 C -21.671875 76.378906 -21.535156 80.019531 -21.265625 83.28125 C -20.992188 86.539062 -20.722656 89.878906 -20.453125 93.296875 C -20.179688 96.722656 -20.046875 100.609375 -20.046875 104.953125 C -20.046875 114.941406 -21.921875 121.753906 -25.671875 125.390625 C -29.421875 129.035156 -35.257812 130.859375 -43.1875 130.859375 L -53.78125 130.859375 L -53.78125 118.15625 L -50.03125 118.15625 C -45.789062 118.15625 -42.960938 117.148438 -41.546875 115.140625 C -40.140625 113.128906 -39.4375 109.40625 -39.4375 103.96875 C -39.4375 98.863281 -39.570312 93.863281 -39.84375 88.96875 C -40.113281 84.082031 -40.25 78.765625 -40.25 73.015625 C -40.25 66.273438 -39.1875 61.328125 -37.0625 58.171875 C -34.945312 55.023438 -31.664062 52.910156 -27.21875 51.828125 L -27.21875 51.015625 C -31.664062 49.921875 -34.945312 47.796875 -37.0625 44.640625 C -39.1875 41.492188 -40.25 36.554688 -40.25 29.828125 C -40.25 24.066406 -40.113281 18.738281 -39.84375 13.84375 C -39.570312 8.957031 -39.4375 3.960938 -39.4375 -1.140625 C -39.4375 -6.460938 -40.140625 -10.128906 -41.546875 -12.140625 C -42.960938 -14.148438 -45.789062 -15.15625 -50.03125 -15.15625 L -53.78125 -15.15625 L -53.78125 -28.1875 Z M -43.1875 -28.1875 "/></g></g></g></g></g></g></g></g></svg>